<svg xmlns="http://www.w3.org/2000/svg" width="1200" height="800" viewBox="0 0 1200 800"><rect width="100%" height="100%" fill="#DDDDDD"/><path fill="#999999" d="M256.005 393.11h8.85q3.25 0 5.67-.81t4.03-2.33q1.61-1.52 2.4-3.7.79-2.18.79-4.86 0-2.55-.79-4.62-.79-2.07-2.38-3.52-1.58-1.45-4-2.22-2.42-.77-5.72-.77h-8.85v22.83Zm-11.83-31.98h20.68q6.38 0 11.04 1.49 4.67 1.5 7.7 4.18 3.04 2.69 4.51 6.43 1.48 3.74 1.48 8.18 0 4.62-1.54 8.47-1.54 3.85-4.62 6.62t-7.73 4.31q-4.64 1.54-10.84 1.54h-8.85v22.4h-11.83v-63.62Zm52.89-1.76h10.86v65.38h-10.86v-65.38Zm45.58 53.72v-7.61q-4.71.22-7.92.81-3.21.6-5.15 1.52-1.93.92-2.77 2.16-.84 1.23-.84 2.68 0 2.86 1.7 4.09 1.69 1.23 4.42 1.23 3.34 0 5.79-1.21 2.44-1.21 4.77-3.67Zm-22.97-23.72-1.93-3.47q7.78-7.13 18.74-7.13 3.96 0 7.08 1.3 3.13 1.3 5.28 3.61 2.16 2.31 3.28 5.52 1.12 3.21 1.12 7.04v28.51h-4.92q-1.54 0-2.38-.46-.84-.46-1.32-1.87l-.97-3.26q-1.71 1.54-3.34 2.71-1.63 1.16-3.39 1.96-1.76.79-3.76 1.21-2 .41-4.42.41-2.86 0-5.28-.77-2.42-.77-4.18-2.31-1.76-1.54-2.73-3.82-.97-2.29-.97-5.33 0-1.71.57-3.41.57-1.69 1.87-3.23 1.3-1.54 3.37-2.91 2.07-1.36 5.08-2.37 3.01-1.01 7.02-1.65 4-.64 9.15-.77v-2.64q0-4.53-1.94-6.71-1.93-2.18-5.58-2.18-2.64 0-4.38.62-1.74.61-3.06 1.38-1.32.77-2.4 1.39-1.08.61-2.4.61-1.14 0-1.93-.59t-1.28-1.39Zm78.98-4.18-2.86 3.96q-.48.62-.94.97-.47.35-1.35.35-.83 0-1.62-.5-.8-.51-1.9-1.15-1.1-.63-2.61-1.14-1.52-.51-3.77-.51-2.86 0-5.01 1.04-2.16 1.03-3.59 2.97-1.43 1.93-2.13 4.68-.71 2.75-.71 6.23 0 3.61.77 6.42.77 2.82 2.23 4.73 1.45 1.92 3.52 2.91 2.06.99 4.66.99t4.2-.64q1.61-.64 2.71-1.41 1.1-.77 1.91-1.41.82-.63 1.83-.63 1.32 0 1.98 1.01l3.12 3.96q-1.8 2.11-3.91 3.54-2.12 1.43-4.38 2.29-2.27.86-4.67 1.21-2.39.35-4.77.35-4.18 0-7.88-1.56-3.69-1.56-6.46-4.56-2.78-2.99-4.38-7.32-1.61-4.34-1.61-9.88 0-4.97 1.43-9.22 1.43-4.24 4.2-7.35 2.78-3.1 6.87-4.86 4.09-1.76 9.41-1.76 5.06 0 8.87 1.63 3.81 1.63 6.84 4.66Zm15.8 11.8h20.5q0-2.12-.59-3.99-.6-1.87-1.78-3.27-1.19-1.41-3.02-2.23-1.82-.81-4.24-.81-4.71 0-7.42 2.68-2.7 2.69-3.45 7.62Zm27.72 6.55h-27.94q.26 3.48 1.23 6.01t2.55 4.18q1.59 1.65 3.76 2.46 2.18.82 4.82.82t4.56-.62q1.91-.62 3.34-1.36 1.43-.75 2.51-1.37 1.08-.61 2.09-.61 1.36 0 2.02 1.01l3.13 3.96q-1.81 2.11-4.05 3.54-2.25 1.43-4.69 2.29-2.44.86-4.97 1.21t-4.91.35q-4.7 0-8.75-1.56t-7.04-4.62q-2.99-3.06-4.71-7.57-1.72-4.51-1.72-10.45 0-4.62 1.5-8.69 1.5-4.07 4.29-7.08 2.79-3.02 6.82-4.78 4.03-1.76 9.09-1.76 4.26 0 7.87 1.37 3.61 1.36 6.21 3.98 2.59 2.62 4.07 6.42 1.47 3.81 1.47 8.69 0 2.47-.53 3.32-.53.86-2.02.86Zm21.56-44.17v25.08q2.64-2.47 5.81-4.01 3.16-1.54 7.43-1.54 3.7 0 6.56 1.26 2.86 1.25 4.77 3.52 1.92 2.26 2.91 5.41.99 3.14.99 6.93v28.73h-10.87v-28.73q0-4.14-1.89-6.4-1.9-2.27-5.77-2.27-2.81 0-5.28 1.28-2.46 1.27-4.66 3.47v32.65h-10.87v-65.38h10.87Zm58.74 19.53q5.01 0 9.13 1.63 4.11 1.63 7.04 4.62 2.92 2.99 4.51 7.3 1.58 4.32 1.58 9.64 0 5.37-1.58 9.68-1.59 4.31-4.51 7.35-2.93 3.03-7.04 4.66-4.12 1.63-9.13 1.63-5.06 0-9.2-1.63-4.13-1.63-7.06-4.66-2.93-3.04-4.53-7.35-1.61-4.31-1.61-9.68 0-5.32 1.61-9.64 1.6-4.31 4.53-7.3t7.06-4.62q4.14-1.63 9.2-1.63Zm0 38.15q5.63 0 8.34-3.78 2.7-3.79 2.7-11.09 0-7.31-2.7-11.13-2.71-3.83-8.34-3.83-5.72 0-8.47 3.85-2.75 3.85-2.75 11.11t2.75 11.06q2.75 3.81 8.47 3.81Zm30.71-57.68h10.87v65.38h-10.87v-65.38Zm50.07 52v-20.24q-1.85-2.24-4.02-3.16-2.18-.93-4.69-.93-2.46 0-4.44.93-1.98.92-3.39 2.79-1.41 1.87-2.16 4.75-.75 2.88-.75 6.8 0 3.96.64 6.71t1.83 4.49q1.19 1.74 2.9 2.51 1.72.77 3.83.77 3.39 0 5.76-1.41 2.38-1.41 4.49-4.01Zm0-52h10.87v65.38h-6.64q-2.16 0-2.73-1.98l-.93-4.36q-2.72 3.13-6.27 5.06-3.54 1.94-8.25 1.94-3.69 0-6.77-1.54-3.08-1.54-5.3-4.47-2.23-2.92-3.44-7.23-1.21-4.32-1.21-9.86 0-5.02 1.37-9.33 1.36-4.31 3.91-7.48 2.56-3.17 6.12-4.95 3.56-1.78 8.01-1.78 3.78 0 6.47 1.19 2.68 1.19 4.79 3.21v-23.8Zm30.19 37.62h20.5q0-2.12-.59-3.99-.6-1.87-1.79-3.27-1.18-1.41-3.01-2.23-1.83-.81-4.25-.81-4.7 0-7.41 2.68-2.71 2.69-3.45 7.62Zm27.72 6.55h-27.94q.26 3.48 1.23 6.01t2.55 4.18q1.58 1.65 3.76 2.46 2.18.82 4.82.82t4.55-.62q1.92-.62 3.35-1.36 1.43-.75 2.51-1.37 1.07-.61 2.09-.61 1.36 0 2.02 1.01l3.12 3.96q-1.8 2.11-4.04 3.54-2.25 1.43-4.69 2.29-2.44.86-4.97 1.21t-4.91.35q-4.71 0-8.75-1.56-4.05-1.56-7.04-4.62-3-3.06-4.71-7.57-1.72-4.51-1.72-10.45 0-4.62 1.5-8.69 1.49-4.07 4.29-7.08 2.79-3.02 6.82-4.78 4.02-1.76 9.08-1.76 4.27 0 7.88 1.37 3.61 1.36 6.2 3.98 2.6 2.62 4.07 6.42 1.48 3.81 1.48 8.69 0 2.47-.53 3.32-.53.86-2.02.86Zm20.28-21.21.66 5.11q2.11-4.05 5.02-6.36 2.9-2.31 6.86-2.31 3.12 0 5.02 1.36l-.71 8.14q-.22.8-.64 1.13-.41.33-1.12.33-.66 0-1.96-.22-1.29-.22-2.53-.22-1.8 0-3.21.52-1.41.53-2.53 1.52-1.12.99-1.98 2.4-.86 1.41-1.6 3.21v27.81h-10.87v-45.14h6.38q1.67 0 2.33.59.66.59.88 2.13Zm58.21-21.2v63.62h-11.88v-63.62h11.88Zm23.37 63.62h-10.87v-45.14h6.64q2.11 0 2.77 1.98l.71 3.34q1.19-1.32 2.48-2.42 1.3-1.1 2.78-1.89 1.47-.79 3.16-1.26 1.7-.46 3.72-.46 4.27 0 7.02 2.31t4.11 6.14q1.06-2.24 2.64-3.85 1.59-1.61 3.48-2.62t4.03-1.49q2.13-.49 4.29-.49 3.74 0 6.64 1.15 2.9 1.14 4.88 3.34t3.02 5.37q1.03 3.17 1.03 7.26v28.73h-10.87v-28.73q0-4.31-1.89-6.49-1.89-2.18-5.54-2.18-1.67 0-3.1.57-1.43.57-2.51 1.65-1.08 1.08-1.7 2.71-.61 1.63-.61 3.74v28.73h-10.91v-28.73q0-4.53-1.83-6.6-1.83-2.07-5.35-2.07-2.37 0-4.42 1.17-2.04 1.16-3.8 3.19v33.04Zm86.68-11.66v-7.61q-4.71.22-7.92.81-3.22.6-5.15 1.52-1.94.92-2.77 2.16-.84 1.23-.84 2.68 0 2.86 1.69 4.09 1.7 1.23 4.43 1.23 3.34 0 5.78-1.21 2.44-1.21 4.78-3.67Zm-22.97-23.72-1.94-3.47q7.79-7.13 18.75-7.13 3.96 0 7.08 1.3t5.28 3.61q2.16 2.31 3.28 5.52 1.12 3.21 1.12 7.04v28.51h-4.93q-1.54 0-2.37-.46-.84-.46-1.32-1.87l-.97-3.26q-1.72 1.54-3.35 2.71-1.62 1.16-3.38 1.96-1.76.79-3.77 1.21-2 .41-4.42.41-2.86 0-5.28-.77-2.42-.77-4.18-2.31-1.76-1.54-2.73-3.82-.96-2.29-.96-5.33 0-1.71.57-3.41.57-1.69 1.87-3.23 1.3-1.54 3.36-2.91 2.07-1.36 5.09-2.37 3.01-1.01 7.01-1.65 4.01-.64 9.16-.77v-2.64q0-4.53-1.94-6.71-1.94-2.18-5.59-2.18-2.64 0-4.38.62-1.73.61-3.05 1.38-1.32.77-2.4 1.39-1.08.61-2.4.61-1.14 0-1.94-.59-.79-.59-1.27-1.39Zm60.28 11.71q2.02 0 3.52-.55 1.49-.55 2.48-1.52t1.5-2.33q.51-1.37.51-2.99 0-3.35-2.01-5.31-2-1.95-6-1.95-4.01 0-6.01 1.95-2 1.96-2 5.31 0 1.58.51 2.94.5 1.37 1.49 2.36.99.99 2.51 1.54 1.52.55 3.5.55Zm12.27 25.69q0-1.32-.79-2.15-.79-.84-2.15-1.3-1.37-.46-3.19-.68-1.83-.22-3.88-.33-2.04-.11-4.22-.2-2.18-.09-4.25-.35-1.8 1.01-2.92 2.37-1.12 1.37-1.12 3.17 0 1.19.59 2.22.59 1.04 1.89 1.79 1.3.74 3.37 1.16 2.07.42 5.06.42 3.03 0 5.23-.46 2.2-.46 3.63-1.28 1.43-.81 2.09-1.93.66-1.13.66-2.45Zm-2.15-45.62h12.98v4.04q0 1.94-2.33 2.38l-4.05.75q.92 2.33.92 5.1 0 3.35-1.34 6.05-1.34 2.71-3.72 4.6-2.37 1.89-5.61 2.93-3.23 1.03-6.97 1.03-1.32 0-2.55-.13-1.24-.13-2.42-.35-2.12 1.27-2.12 2.86 0 1.36 1.26 2 1.25.64 3.32.9t4.71.33q2.64.07 5.41.29 2.77.22 5.41.77t4.71 1.73q2.07 1.19 3.32 3.24 1.26 2.04 1.26 5.26 0 2.99-1.48 5.8-1.47 2.82-4.27 5.02-2.79 2.2-6.86 3.54-4.07 1.34-9.26 1.34-5.11 0-8.89-.99-3.78-.99-6.29-2.64-2.51-1.65-3.74-3.8-1.23-2.16-1.23-4.49 0-3.17 1.91-5.3 1.91-2.14 5.26-3.41-1.81-.93-2.86-2.47-1.06-1.54-1.06-4.04 0-1.02.38-2.09.37-1.08 1.1-2.14.72-1.05 1.82-2t2.6-1.69q-3.43-1.85-5.39-4.93-1.96-3.08-1.96-7.22 0-3.34 1.34-6.05 1.34-2.7 3.74-4.62 2.4-1.91 5.68-2.92 3.28-1.02 7.15-1.02 2.9 0 5.45.6 2.56.59 4.67 1.74Zm28.42 15.84h20.51q0-2.12-.6-3.99-.59-1.87-1.78-3.27-1.19-1.41-3.01-2.23-1.83-.81-4.25-.81-4.71 0-7.41 2.68-2.71 2.69-3.46 7.62Zm27.72 6.55h-27.94q.27 3.48 1.23 6.01.97 2.53 2.56 4.18 1.58 1.65 3.76 2.46 2.18.82 4.82.82t4.55-.62q1.91-.62 3.34-1.36 1.43-.75 2.51-1.37 1.08-.61 2.09-.61 1.37 0 2.03 1.01l3.12 3.96q-1.8 2.11-4.05 3.54-2.24 1.43-4.68 2.29-2.45.86-4.98 1.21-2.53.35-4.9.35-4.71 0-8.76-1.56t-7.04-4.62q-2.99-3.06-4.71-7.57-1.71-4.51-1.71-10.45 0-4.62 1.49-8.69 1.5-4.07 4.29-7.08 2.8-3.02 6.82-4.78 4.03-1.76 9.09-1.76 4.27 0 7.88 1.37 3.6 1.36 6.2 3.98t4.07 6.42q1.47 3.81 1.47 8.69 0 2.47-.52 3.32-.53.86-2.03.86Z"/></svg>